<svg width="16" height="16" viewBox="0 0 16 16" fill="none" xmlns="http://www.w3.org/2000/svg">
<path d="M8.00016 8.66659C8.36835 8.66659 8.66683 8.36811 8.66683 7.99992C8.66683 7.63173 8.36835 7.33325 8.00016 7.33325C7.63197 7.33325 7.3335 7.63173 7.3335 7.99992C7.3335 8.36811 7.63197 8.66659 8.00016 8.66659Z" stroke="#09090B" stroke-width="1.33333" stroke-linecap="round" stroke-linejoin="round"/>
<path d="M12.6667 8.66659C13.0349 8.66659 13.3333 8.36811 13.3333 7.99992C13.3333 7.63173 13.0349 7.33325 12.6667 7.33325C12.2985 7.33325 12 7.63173 12 7.99992C12 8.36811 12.2985 8.66659 12.6667 8.66659Z" stroke="#09090B" stroke-width="1.33333" stroke-linecap="round" stroke-linejoin="round"/>
<path d="M3.33317 8.66659C3.70136 8.66659 3.99984 8.36811 3.99984 7.99992C3.99984 7.63173 3.70136 7.33325 3.33317 7.33325C2.96498 7.33325 2.6665 7.63173 2.6665 7.99992C2.6665 8.36811 2.96498 8.66659 3.33317 8.66659Z" stroke="#09090B" stroke-width="1.33333" stroke-linecap="round" stroke-linejoin="round"/>
</svg>
