<svg width="16" height="16" viewBox="0 0 16 16" fill="none" xmlns="http://www.w3.org/2000/svg">
<path d="M8 11.3333V14.6666" stroke="#09090B" stroke-width="1.33333" stroke-linecap="round" stroke-linejoin="round"/>
<path d="M6.00016 7.17325C6.00003 7.42131 5.9307 7.66441 5.79998 7.87522C5.66925 8.08604 5.4823 8.2562 5.26016 8.36659L4.0735 8.96659C3.85135 9.07697 3.66441 9.24714 3.53368 9.45795C3.40295 9.66876 3.33363 9.91186 3.3335 10.1599V10.6666C3.3335 10.8434 3.40373 11.013 3.52876 11.138C3.65378 11.263 3.82335 11.3333 4.00016 11.3333H12.0002C12.177 11.3333 12.3465 11.263 12.4716 11.138C12.5966 11.013 12.6668 10.8434 12.6668 10.6666V10.1599C12.6667 9.91186 12.5974 9.66876 12.4666 9.45795C12.3359 9.24714 12.149 9.07697 11.9268 8.96659L10.7402 8.36659C10.518 8.2562 10.3311 8.08604 10.2003 7.87522C10.0696 7.66441 10.0003 7.42131 10.0002 7.17325V4.66659C10.0002 4.48977 10.0704 4.32021 10.1954 4.19518C10.3204 4.07016 10.49 3.99992 10.6668 3.99992C11.0205 3.99992 11.3596 3.85944 11.6096 3.60939C11.8597 3.35935 12.0002 3.02021 12.0002 2.66659C12.0002 2.31296 11.8597 1.97382 11.6096 1.72378C11.3596 1.47373 11.0205 1.33325 10.6668 1.33325H5.3335C4.97987 1.33325 4.64074 1.47373 4.39069 1.72378C4.14064 1.97382 4.00016 2.31296 4.00016 2.66659C4.00016 3.02021 4.14064 3.35935 4.39069 3.60939C4.64074 3.85944 4.97987 3.99992 5.3335 3.99992C5.51031 3.99992 5.67988 4.07016 5.8049 4.19518C5.92992 4.32021 6.00016 4.48977 6.00016 4.66659V7.17325Z" stroke="#09090B" stroke-width="1.33333" stroke-linecap="round" stroke-linejoin="round"/>
</svg>
